<?xml version="1.0" encoding="utf-8"?>
<!-- Generator: Adobe Illustrator 23.0.3, SVG Export Plug-In . SVG Version: 6.00 Build 0)  -->
<svg version="1.0" id="Layer_1" xmlns="http://www.w3.org/2000/svg" xmlns:xlink="http://www.w3.org/1999/xlink" x="0px" y="0px"
	 viewBox="0 0 390 390" style="enable-background:new 0 0 390 390;" xml:space="preserve">
<style type="text/css">
	.st0{fill:#FFFFFF;}
	.st1{fill:none;stroke:#3E9FC5;stroke-width:15;stroke-linecap:round;stroke-linejoin:round;}
	.st2{fill:#3E9FC5;}
	.st3{enable-background:new    ;}
</style>
<g>
	<g id="Layer_4">
		<circle class="st0" cx="195" cy="195" r="195"/>
		<path class="st1" d="M267.3,223.1v35c0,2.8-2.9,5.1-6.5,5.1H123c-3.6,0-6.5-2.3-6.5-5.1V155.6l0,0c0.2-0.7-0.3-1.3-0.9-1.5
			c-0.1,0-0.2,0-0.3,0l-22.7,0.4c-2.2,0-3.4-2.3-1.8-3.7l22.7-20.1l0.2-0.9l-0.4-50.1c0.1-2.2,1.8-3.9,4-3.9h23.2
			c2.2,0,3.9,1.7,4,3.9v23.5h0.5l44.7-40.3c1.3-1.1,3.1-1.1,4.4,0l50.5,44.8l43,37.6c1.2,1.1,1.4,3,0.3,4.2c-0.6,0.7-1.4,1-2.3,1
			h-17.4"/>
		<ellipse class="st2" cx="267.3" cy="228.7" rx="22.3" ry="21.7"/>
		<path class="st1" d="M272,180.7c-37-0.2-53.8,17.2-54,52.2"/>
		<path class="st1" d="M184.1,231.8c0.2-52.1,29-81.6,84.1-81.3"/>
		<g class="st3">
			<path class="st2" d="M72.6,286.9h6.7v13h11.5v-13h6.6v34.5h-6.6v-15.1H79.2v15.1h-6.7V286.9z"/>
			<path class="st2" d="M116.5,295.2c2.4,0,4.7,0.6,6.8,1.8s3.8,2.8,5,4.9s1.8,4.3,1.8,6.7c0,2.4-0.6,4.7-1.8,6.8s-2.8,3.7-4.9,4.9
				s-4.3,1.8-6.8,1.8c-3.7,0-6.8-1.3-9.4-3.9s-3.9-5.8-3.9-9.5c0-4,1.5-7.3,4.4-10C110.2,296.3,113.2,295.2,116.5,295.2z
				 M116.6,301.2c-2,0-3.6,0.7-5,2.1c-1.3,1.4-2,3.2-2,5.3c0,2.2,0.7,4,2,5.4c1.3,1.4,3,2.1,5,2.1c2,0,3.7-0.7,5-2.1
				c1.3-1.4,2-3.2,2-5.4s-0.7-4-2-5.3C120.3,301.9,118.6,301.2,116.6,301.2z"/>
			<path class="st2" d="M135.2,295.8h6.4v2.9c1.1-1.2,2.3-2.1,3.6-2.7s2.8-0.9,4.4-0.9c1.6,0,3,0.4,4.3,1.2s2.3,1.9,3.1,3.4
				c1-1.5,2.3-2.6,3.7-3.4s3.1-1.2,4.8-1.2c1.8,0,3.4,0.4,4.8,1.3s2.4,1.9,3,3.3c0.6,1.4,0.9,3.6,0.9,6.6v15h-6.4v-12.9
				c0-2.9-0.4-4.8-1.1-5.9s-1.8-1.5-3.2-1.5c-1.1,0-2.1,0.3-2.9,0.9s-1.5,1.5-1.9,2.6s-0.6,2.9-0.6,5.3v11.5h-6.4V309
				c0-2.3-0.2-3.9-0.5-5c-0.3-1-0.8-1.8-1.5-2.3c-0.7-0.5-1.5-0.8-2.4-0.8c-1.1,0-2,0.3-2.9,0.9s-1.5,1.5-1.9,2.7s-0.6,2.9-0.6,5.4
				v11.3h-6.4V295.8z"/>
			<path class="st2" d="M205.9,310.5h-20.6c0.3,1.8,1.1,3.3,2.4,4.3s2.9,1.6,4.9,1.6c2.4,0,4.4-0.8,6.2-2.5l5.4,2.5
				c-1.3,1.9-3,3.3-4.8,4.2s-4.1,1.4-6.7,1.4c-4,0-7.3-1.3-9.8-3.8s-3.8-5.7-3.8-9.5c0-3.9,1.3-7.1,3.8-9.7s5.7-3.9,9.4-3.9
				c4,0,7.3,1.3,9.8,3.9s3.8,6,3.8,10.2L205.9,310.5z M199.5,305.4c-0.4-1.4-1.3-2.6-2.5-3.5c-1.2-0.9-2.7-1.3-4.3-1.3
				c-1.8,0-3.3,0.5-4.7,1.5c-0.8,0.6-1.6,1.7-2.3,3.3H199.5z"/>
			<path class="st2" d="M243.5,292.9l-4.6,4.4c-3.1-3.3-6.6-5-10.5-5c-3.3,0-6.1,1.1-8.3,3.4c-2.3,2.3-3.4,5-3.4,8.3
				c0,2.3,0.5,4.3,1.5,6.1s2.4,3.2,4.2,4.2c1.8,1,3.9,1.5,6.1,1.5c1.9,0,3.6-0.4,5.2-1.1c1.6-0.7,3.3-2,5.2-3.9l4.4,4.6
				c-2.5,2.5-5,4.2-7.2,5.2c-2.3,1-4.9,1.4-7.8,1.4c-5.4,0-9.7-1.7-13.2-5.1s-5.1-7.8-5.1-13.1c0-3.4,0.8-6.5,2.3-9.2
				s3.8-4.8,6.7-6.4s6-2.4,9.4-2.4c2.8,0,5.6,0.6,8.2,1.8S241.6,290.7,243.5,292.9z"/>
			<path class="st2" d="M260.5,295.2c2.4,0,4.7,0.6,6.8,1.8s3.8,2.8,5,4.9s1.8,4.3,1.8,6.7c0,2.4-0.6,4.7-1.8,6.8s-2.8,3.7-4.9,4.9
				s-4.3,1.8-6.8,1.8c-3.7,0-6.8-1.3-9.4-3.9s-3.9-5.8-3.9-9.5c0-4,1.5-7.3,4.4-10C254.2,296.3,257.2,295.2,260.5,295.2z
				 M260.6,301.2c-2,0-3.6,0.7-5,2.1s-2,3.2-2,5.3c0,2.2,0.7,4,2,5.4s3,2.1,5,2.1c2,0,3.7-0.7,5-2.1s2-3.2,2-5.4s-0.7-4-2-5.3
				S262.6,301.2,260.6,301.2z"/>
			<path class="st2" d="M279.2,295.8h6.4v2.9c1.1-1.2,2.3-2.1,3.6-2.7s2.8-0.9,4.4-0.9c1.6,0,3,0.4,4.3,1.2s2.3,1.9,3.1,3.4
				c1-1.5,2.3-2.6,3.7-3.4s3.1-1.2,4.8-1.2c1.8,0,3.4,0.4,4.8,1.3s2.4,1.9,3,3.3c0.6,1.4,0.9,3.6,0.9,6.6v15h-6.4v-12.9
				c0-2.9-0.4-4.8-1.1-5.9s-1.8-1.5-3.2-1.5c-1.1,0-2.1,0.3-2.9,0.9s-1.5,1.5-1.9,2.6s-0.6,2.9-0.6,5.3v11.5h-6.4V309
				c0-2.3-0.2-3.9-0.5-5c-0.3-1-0.8-1.8-1.5-2.3s-1.5-0.8-2.4-0.8c-1.1,0-2,0.3-2.9,0.9s-1.5,1.5-2,2.7s-0.6,2.9-0.6,5.4v11.3h-6.4
				V295.8z"/>
		</g>
	</g>
</g>
</svg>
